Cover:
=================================================================================== 
http://img839.imageshack.us/img839/7485/hartswarfront.jpg
===================================================================================

Storyline:
===================================================================================
Fourth-generation Army Col. William McNamara is imprisoned in a brutal German POW camp. Still, as the senior-ranking American officer, he commands his fellow inmates, keeping a sense of honor alive in a place where honor is easy to destroy, all under the dangerous eye of the Luftwafe vetran Col. Wilhelm Visser. Never giving up the fight to win the war, McNamara is silently planning, waiting for his moment to strike back at the enemy. A murder in the camp gives him the chance to set a risky plan in motion. With a court martial to keep Visser and the Germans distracted, McNamara orchestrates a cunning scheme to escape and destroy a nearby munitions plant, enlisting the unwitting help of young Lt. Tommy Hart. Together with his men, McNamara uses a hero's resolve to carry out his mission, ultimately forced to weigh the value of his life against the good of his country.
===================================================================================

Cast:
===================================================================================
Bruce Willis 	... Col. William A. McNamara
Colin Farrell 	... Lt. Thomas W. Hart
Terrence Howard ... Lt. Lincoln A. Scott
Cole Hauser 	... Staff Sgt. Vic W. Bedford
Marcel Iures 	... Col. Werner Visser
Linus Roache 	... Capt. Peter A. Ross
Vicellous Reon Shannon 	..Lt. Lamar T. Archer 
Maury Sterling 	...Pfc. Dennis A. Gerber
Sam Jaeger 	...Capt. R.G. Sisk
Scott Michael Campbell 	...Cpl. Joe S. Cromin
Rory Cochrane 	...Sgt. Carl S. Webb
Sebastian Tillinger ... Pvt. Bert D. 'Moose' Codman
Rick Ravanello 	... Maj. Joe Clary
Adrian Grenier 	... Pvt. Daniel E. Abrams
Michael Weston 	... Pfc. W. Roy Potts
===================================================================================

Video Specs:
===================================================================================
Format                           : MPEG-4 Visual
Format settings, BVOP            : Yes
Format settings, QPel            : No
Format settings, GMC             : No warppoints
Format settings, Matrix          : Default (H.263)
Muxing mode                      : Packed bitstream
Codec ID                         : DX50
Codec ID/Hint                    : DivX 5
Duration                         : 2h 4mn
Bit rate                         : 795 Kbps
Width                            : 720 pixels
Height                           : 304 pixels
Display aspect ratio             : 2.2:1
Frame rate                       : 23.976 fps
Color space                      : YUV
Chroma subsampling               : 4:2:0
Bit depth                        : 8 bits
Scan type                        : Progressive
Bits/(Pixel*Frame)               : 0.152
Stream size                      : 710 MiB (85%)
===================================================================================

Audio Specs:
===================================================================================
Format                           : MPEG Audio
Format version                   : Version 1
Format profile                   : Layer 3
Mode                             : Joint stereo
Mode extension                   : MS Stereo
Codec ID                         : 55
Codec ID/Hint                    : MP3
Duration                         : 2h 4mn
Bit rate mode                    : Constant
Bit rate                         : 128 Kbps
Channel(s)                       : 2 channels
Sampling rate                    : 48.0 KHz
Stream size                      : 114 MiB (14%)
Alignment                        : Aligned on interleaves
Interleave, duration             : 42 ms (1.00 video frame)
Interleave, preload duration     : 504 ms
===================================================================================

Screens:
=================================================================================== 
http://img253.imageshack.us/img253/2157/vlcsnap2010112613h59m33.png 
http://img152.imageshack.us/img152/2527/vlcsnap2010112613h58m50.png 
http://img163.imageshack.us/img163/5964/vlcsnap2010112613h59m52.png 
http://img29.imageshack.us/img29/184/vlcsnap2010112613h59m59.png 
http://img821.imageshack.us/img821/8747/vlcsnap2010112614h00m15.png 
http://img219.imageshack.us/img219/5806/vlcsnap2010112614h00m22.png 
http://img842.imageshack.us/img842/3063/vlcsnap2010112614h00m32.png 
http://img146.imageshack.us/img146/51/vlcsnap2010112614h00m38.png 
http://img812.imageshack.us/img812/7274/vlcsnap2010112614h01m16.png 
http://img16.imageshack.us/img16/5941/vlcsnap2010112614h01m25.png 
http://img340.imageshack.us/img340/2731/vlcsnap2010112614h01m49.png 
http://img525.imageshack.us/img525/3918/vlcsnap2010112614h02m10.png
===================================================================================
Enjoy!!
